<svg
 xmlns="http://www.w3.org/2000/svg"
 xmlns:xlink="http://www.w3.org/1999/xlink"
 width="42px" height="47px">
<path fill-rule="evenodd"  fill="rgb(255, 255, 255)"
 d="M39.460,21.202 L41.315,21.369 L42.003,14.235 L40.911,14.132 C40.768,14.118 40.187,14.066 40.187,14.066 L40.151,13.771 C40.014,12.641 39.847,11.613 39.675,10.707 L39.687,10.707 C39.199,8.118 38.661,6.521 38.620,6.402 L38.444,5.889 L20.988,0.000 L9.185,3.993 L9.185,3.993 L8.070,4.370 L3.581,5.889 L3.581,5.889 L3.580,5.889 L3.415,6.366 L3.404,6.398 C3.404,6.399 3.403,6.400 3.403,6.400 C3.402,6.405 3.399,6.414 3.395,6.425 C3.392,6.432 3.390,6.439 3.386,6.449 C3.385,6.454 3.383,6.460 3.381,6.466 C3.268,6.804 2.775,8.339 2.323,10.707 L2.325,10.707 C2.152,11.613 1.986,12.641 1.849,13.771 L1.813,14.066 C1.813,14.066 1.232,14.118 1.089,14.132 L-0.003,14.235 L0.685,21.369 L2.540,21.202 L2.545,21.410 L2.551,21.829 L2.407,21.937 C1.849,22.356 1.187,23.289 1.092,23.466 C1.019,23.599 0.897,23.955 0.897,24.837 L0.897,38.331 L3.789,37.485 C4.183,37.369 4.405,37.284 4.606,37.207 C4.685,37.176 4.768,37.144 4.880,37.106 L5.182,37.002 L5.834,36.790 C6.210,36.668 6.399,36.607 6.790,36.489 L7.552,36.251 L7.708,36.453 C10.887,40.592 15.189,44.056 20.491,46.746 L21.000,47.000 L21.506,46.747 C26.811,44.056 31.113,40.592 34.292,36.453 L34.448,36.251 L35.207,36.488 C35.601,36.607 35.790,36.668 36.167,36.790 L36.825,37.004 L37.120,37.106 C37.232,37.144 37.315,37.176 37.399,37.209 C37.594,37.284 37.817,37.369 38.211,37.485 L41.102,38.331 L41.102,24.837 C41.102,23.955 40.981,23.599 40.908,23.466 C40.813,23.289 40.151,22.356 39.593,21.937 L39.449,21.829 L39.455,21.410 L39.460,21.202 ZM24.870,28.691 L20.915,26.401 L16.960,28.691 L17.908,24.208 L14.515,21.140 L19.057,20.659 L20.915,16.473 L22.773,20.659 L27.315,21.140 L23.923,24.208 L24.870,28.691 Z"/>
</svg>
